<svg width="472.6850219726562px" height="131.36000366210936px" xmlns="http://www.w3.org/2000/svg" viewBox="13.657489013671892 9.319998168945318 472.6850219726562 131.36000366210936" style="background: rgba(0, 0, 0, 0);" preserveAspectRatio="xMidYMid"><defs><filter id="editing-hole" x="-100%" y="-100%" width="300%" height="300%"><feFlood flood-color="#000000" result="black"></feFlood><feMorphology operator="dilate" radius="2" in="SourceGraphic" result="erode"></feMorphology><feGaussianBlur in="erode" stdDeviation="4" result="blur"></feGaussianBlur><feOffset in="blur" dx="2" dy="2" result="offset"></feOffset><feComposite operator="atop" in="offset" in2="black" result="merge"></feComposite><feComposite operator="in" in="merge" in2="SourceGraphic" result="inner-shadow"></feComposite></filter></defs><g filter="url(#editing-hole)"><g transform="translate(83.76502227783203, 106.36000061035156)"><path d="M45.22-44.81L45.22-36.69L27.31-36.69L27.31 0L19.19 0L19.19-36.69L1.25-36.69L1.25-44.81L45.22-44.81ZM87.84-22.41L87.84 0L79.72 0L79.72-22.41L79.72-22.41Q79.72-24 78.91-24.83L78.91-24.83L78.91-24.83Q78.09-25.66 76.47-25.66L76.47-25.66L61.81-25.66L61.81-33.78L76.47-33.78L76.47-33.78Q77.63-33.78 78.91-33.52L78.91-33.52L78.91-33.52Q80.19-33.25 81.45-32.69L81.45-32.69L81.45-32.69Q82.72-32.13 83.88-31.23L83.88-31.23L83.88-31.23Q85.03-30.34 85.91-29.08L85.91-29.08L85.91-29.08Q86.78-27.81 87.31-26.16L87.31-26.16L87.31-26.16Q87.84-24.50 87.84-22.41L87.84-22.41ZM58.53-48.06L58.53 0L50.41 0L50.41-48.06L58.53-48.06ZM131.63-22.59L131.63-22.59L131.63-22.59Q131.63-20.91 131.03-18.95L131.03-18.95L131.03-18.95Q130.44-17 129.11-15.33L129.11-15.33L129.11-15.33Q127.78-13.66 125.64-12.53L125.64-12.53L125.64-12.53Q123.50-11.41 120.44-11.41L120.44-11.41L105.78-11.41L105.78-19.13L120.44-19.13L120.44-19.13Q122.09-19.13 123-20.14L123-20.14L123-20.14Q123.91-21.16 123.91-22.66L123.91-22.66L123.91-22.66Q123.91-24.25 122.89-25.16L122.89-25.16L122.89-25.16Q121.88-26.06 120.44-26.06L120.44-26.06L105.78-26.06L105.78-26.06Q104.13-26.06 103.22-25.05L103.22-25.05L103.22-25.05Q102.31-24.03 102.31-22.53L102.31-22.53L102.31-11.19L102.31-11.19Q102.31-9.56 103.33-8.66L103.33-8.66L103.33-8.66Q104.34-7.75 105.84-7.75L105.84-7.75L120.44-7.75L120.44 0L105.78 0L105.78 0Q104.09 0 102.14-0.59L102.14-0.59L102.14-0.59Q100.19-1.19 98.52-2.52L98.52-2.52L98.52-2.52Q96.84-3.84 95.72-5.98L95.72-5.98L95.72-5.98Q94.59-8.13 94.59-11.19L94.59-11.19L94.59-22.59L94.59-22.59Q94.59-24.28 95.19-26.23L95.19-26.23L95.19-26.23Q95.78-28.19 97.11-29.86L97.11-29.86L97.11-29.86Q98.44-31.53 100.58-32.66L100.58-32.66L100.58-32.66Q102.72-33.78 105.78-33.78L105.78-33.78L120.44-33.78L120.44-33.78Q122.13-33.78 124.08-33.19L124.08-33.19L124.08-33.19Q126.03-32.59 127.70-31.27L127.70-31.27L127.70-31.27Q129.38-29.94 130.50-27.80L130.50-27.80L130.50-27.80Q131.63-25.66 131.63-22.59ZM195.66-26.50L195.66-18.31L170-18.31L170-26.50L195.66-26.50ZM199.31-8.13L199.31 0L170 0L170 0Q168.31 0 166.31-0.59L166.31-0.59L166.31-0.59Q164.31-1.19 162.61-2.55L162.61-2.55L162.61-2.55Q160.91-3.91 159.77-6.08L159.77-6.08L159.77-6.08Q158.63-8.25 158.63-11.41L158.63-11.41L158.63-40.72L158.63-40.72Q158.63-41.56 158.94-42.31L158.94-42.31L158.94-42.31Q159.25-43.06 159.80-43.63L159.80-43.63L159.80-43.63Q160.34-44.19 161.09-44.50L161.09-44.50L161.09-44.50Q161.84-44.81 162.72-44.81L162.72-44.81L199.31-44.81L199.31-36.69L166.75-36.69L166.75-11.41L166.75-11.41Q166.75-9.81 167.59-8.97L167.59-8.97L167.59-8.97Q168.44-8.13 170.06-8.13L170.06-8.13L199.31-8.13ZM242.94-48.06L242.94-11.41L242.94-11.41Q242.94-9.31 242.41-7.64L242.41-7.64L242.41-7.64Q241.88-5.97 241-4.70L241-4.70L241-4.70Q240.13-3.44 238.97-2.55L238.97-2.55L238.97-2.55Q237.81-1.66 236.55-1.09L236.55-1.09L236.55-1.09Q235.28-0.53 233.98-0.27L233.98-0.27L233.98-0.27Q232.69 0 231.53 0L231.53 0L216.88 0L216.88 0Q214.78 0 213.13-0.53L213.13-0.53L213.13-0.53Q211.47-1.06 210.20-1.95L210.20-1.95L210.20-1.95Q208.94-2.84 208.05-4L208.05-4L208.05-4Q207.16-5.16 206.59-6.42L206.59-6.42L206.59-6.42Q206.03-7.69 205.77-8.98L205.77-8.98L205.77-8.98Q205.50-10.28 205.50-11.41L205.50-11.41L205.50-22.41L205.50-22.41Q205.50-25.53 206.64-27.70L206.64-27.70L206.64-27.70Q207.78-29.88 209.48-31.23L209.48-31.23L209.48-31.23Q211.19-32.59 213.19-33.19L213.19-33.19L213.19-33.19Q215.19-33.78 216.88-33.78L216.88-33.78L231.53-33.78L231.53-25.66L216.94-25.66L216.94-25.66Q215.31-25.66 214.47-24.83L214.47-24.83L214.47-24.83Q213.63-24 213.63-22.41L213.63-22.41L213.63-11.47L213.63-11.47Q213.63-9.81 214.45-8.97L214.45-8.97L214.45-8.97Q215.28-8.13 216.88-8.13L216.88-8.13L231.53-8.13L231.53-8.13Q233.19-8.13 234-8.97L234-8.97L234-8.97Q234.81-9.81 234.81-11.41L234.81-11.41L234.81-48.06L242.94-48.06ZM287.44-22.41L287.44 3.25L287.44 3.25Q287.44 5.34 286.91 7.02L286.91 7.02L286.91 7.02Q286.38 8.69 285.50 9.95L285.50 9.95L285.50 9.95Q284.63 11.22 283.47 12.11L283.47 12.11L283.47 12.11Q282.31 13 281.05 13.56L281.05 13.56L281.05 13.56Q279.78 14.13 278.48 14.39L278.48 14.39L278.48 14.39Q277.19 14.66 276.03 14.66L276.03 14.66L261.38 14.66L261.38 6.53L276.03 6.53L276.03 6.53Q277.69 6.53 278.50 5.69L278.50 5.69L278.50 5.69Q279.31 4.84 279.31 3.25L279.31 3.25L279.31-22.41L279.31-22.41Q279.31-24 278.50-24.83L278.50-24.83L278.50-24.83Q277.69-25.66 276.03-25.66L276.03-25.66L261.38-25.66L261.38-25.66Q259.88-25.66 259-24.73L259-24.73L259-24.73Q258.13-23.81 258.13-22.41L258.13-22.41L258.13-11.41L258.13-11.41Q258.13-9.81 258.97-8.97L258.97-8.97L258.97-8.97Q259.81-8.13 261.44-8.13L261.44-8.13L276.03-8.13L276.03 0L261.38 0L261.38 0Q260.22 0 258.94-0.27L258.94-0.27L258.94-0.27Q257.66-0.53 256.39-1.09L256.39-1.09L256.39-1.09Q255.13-1.66 253.97-2.55L253.97-2.55L253.97-2.55Q252.81-3.44 251.94-4.70L251.94-4.70L251.94-4.70Q251.06-5.97 250.53-7.64L250.53-7.64L250.53-7.64Q250-9.31 250-11.41L250-11.41L250-22.41L250-22.41Q250-23.56 250.27-24.84L250.27-24.84L250.27-24.84Q250.53-26.13 251.09-27.39L251.09-27.39L251.09-27.39Q251.66-28.66 252.55-29.81L252.55-29.81L252.55-29.81Q253.44-30.97 254.70-31.84L254.70-31.84L254.70-31.84Q255.97-32.72 257.63-33.25L257.63-33.25L257.63-33.25Q259.28-33.78 261.38-33.78L261.38-33.78L276.03-33.78L276.03-33.78Q277.19-33.78 278.48-33.52L278.48-33.52L278.48-33.52Q279.78-33.25 281.05-32.69L281.05-32.69L281.05-32.69Q282.31-32.13 283.47-31.23L283.47-31.23L283.47-31.23Q284.63-30.34 285.50-29.08L285.50-29.08L285.50-29.08Q286.38-27.81 286.91-26.16L286.91-26.16L286.91-26.16Q287.44-24.50 287.44-22.41L287.44-22.41ZM331.22-22.59L331.22-22.59L331.22-22.59Q331.22-20.91 330.63-18.95L330.63-18.95L330.63-18.95Q330.03-17 328.70-15.33L328.70-15.33L328.70-15.33Q327.38-13.66 325.23-12.53L325.23-12.53L325.23-12.53Q323.09-11.41 320.03-11.41L320.03-11.41L305.38-11.41L305.38-19.13L320.03-19.13L320.03-19.13Q321.69-19.13 322.59-20.14L322.59-20.14L322.59-20.14Q323.50-21.16 323.50-22.66L323.50-22.66L323.50-22.66Q323.50-24.25 322.48-25.16L322.48-25.16L322.48-25.16Q321.47-26.06 320.03-26.06L320.03-26.06L305.38-26.06L305.38-26.06Q303.72-26.06 302.81-25.05L302.81-25.05L302.81-25.05Q301.91-24.03 301.91-22.53L301.91-22.53L301.91-11.19L301.91-11.19Q301.91-9.56 302.92-8.66L302.92-8.66L302.92-8.66Q303.94-7.75 305.44-7.75L305.44-7.75L320.03-7.75L320.03 0L305.38 0L305.38 0Q303.69 0 301.73-0.59L301.73-0.59L301.73-0.59Q299.78-1.19 298.11-2.52L298.11-2.52L298.11-2.52Q296.44-3.84 295.31-5.98L295.31-5.98L295.31-5.98Q294.19-8.13 294.19-11.19L294.19-11.19L294.19-22.59L294.19-22.59Q294.19-24.28 294.78-26.23L294.78-26.23L294.78-26.23Q295.38-28.19 296.70-29.86L296.70-29.86L296.70-29.86Q298.03-31.53 300.17-32.66L300.17-32.66L300.17-32.66Q302.31-33.78 305.38-33.78L305.38-33.78L320.03-33.78L320.03-33.78Q321.72-33.78 323.67-33.19L323.67-33.19L323.67-33.19Q325.63-32.59 327.30-31.27L327.30-31.27L327.30-31.27Q328.97-29.94 330.09-27.80L330.09-27.80L330.09-27.80Q331.22-25.66 331.22-22.59Z" fill="#ffffff"></path></g></g><style>text {
  font-size: 64px;
  font-family: Arial Black;
  dominant-baseline: central;
  text-anchor: middle;
}</style></svg>